/* XPM */
static const char * ChipReload_xpm[] = {
"16 16 9 1",
" 	c None",
".	c #FFFFFF",
"+	c #FFEF3F",
"@	c #B38F01",
"#	c #000000",
"$	c #FF0000",
"%	c #6C6C6C",
"&	c #D6D7D7",
"*	c #988D6D",
"       ...+     ",
"       .++@.....",
"       .+++++++@",
"   ##  .+++++++@",
" ####$$.+++++++@",
"%####$$.+++++++@",
"#.%##$$.@@@@@@@@",
"###.%$$$$$###   ",
"&**##$$$$$##### ",
" **#**#.%#######",
" **&**###.%#####",
" *& **&**##.%###",
" *& *& **#**#%#*",
"    *& **&**##.*",
"       *& **&   ",
"       *& *&    "};
