/* XPM */
static const char * WxPic32_xpm[] = {
"32 32 7 1",
" 	c None",
".	c #000000",
"+	c #6D6D6D",
"@	c #FFFFFF",
"#	c #C8C2B1",
"$	c #BBB49E",
"%	c #998E6E",
"                                ",
"                                ",
"     ...                        ",
"    ......                      ",
"   .........                    ",
"  ............                  ",
" +..............                ",
"++................              ",
"..@@................            ",
"....@@................          ",
"......@@................        ",
"..##....@@................      ",
"..$$##....@@................    ",
" .%%$$......@@................  ",
"  %%%%..##....@@.............++.",
"  %%%%..$$##....@@..........+...",
"  %%%% .%%$$......@@.......+....",
"   %%%  %%%%..##....@@....+.....",
"   %%   %%%%..$$##....@@.+......",
"   %%   %%%% .%%$$......+......%",
"   %%    %%%  %%%%..##..+.....%%",
"   %%    %%   %%%%..$$##......%%",
"         %%   %%%% .%%$$....  %%",
"         %%    %%%  %%%%...   %%",
"         %%    %%   %%%% .     %",
"               %%    %%%        ",
"               %%    %%         ",
"               %%    %%         ",
"                     %%         ",
"                     %%         ",
"                                ",
"                                "};
