/* XPM */
 {
/* columns rows colors chars-per-pixel */
"16 16 8 1",
"  c black",
". c #484848484848",
"X c #7F7F7F7F7F7F",
"o c #808080807F7F",
"O c #858585858585",
"+ c #F6F6F6F6F6F6",
"@ c #F7F7F7F7F7F7",
"# c #FFFFFFFFFFFF",
/* pixels */
"####o.   .o#####",
"###.       .####",
"##.   XXXX  .###",
"#.  XXXXXXX  .##",
"o  XXXXXXXXX  o#",
". OXXXXXXXXXX .#",
"  XXXXXXXXXXX  #",
"  XXXXXXXXXXX  #",
"  XXXXXXXXXXX  #",
". XXXXXXXXXXX .#",
"o  XXXXXXXXX  o#",
"#.  XXXXXXX  .##",
"##.  XXXXX  .+##",
"###.       .+###",
"####o.   .o#####",
"################"
};
