/* XPM */
static char * ChipVerify_xpm[] = {
"16 16 40 1",
" 	c None",
".	c #8F2DFF",
"+	c #902BFF",
"@	c #8E2CFF",
"#	c #8C2CFF",
"$	c #A931FF",
"%	c #9C30FF",
"&	c #A633FF",
"*	c #7424FF",
"=	c #942DFF",
"-	c #9A2FFF",
";	c #9C2EFF",
">	c #8C28FF",
",	c #000000",
"'	c #902DFF",
")	c #AA34FF",
"!	c #9C31FF",
"~	c #AC33FF",
"{	c #7825FF",
"]	c #6C6C6C",
"^	c #7525FF",
"/	c #A432FF",
"(	c #FFFFFF",
"_	c #8227FF",
":	c #972CFF",
"<	c #34106A",
"[	c #8926FF",
"}	c #B629FF",
"|	c #D6D7D7",
"1	c #988D6D",
"2	c #7F28FF",
"3	c #8B2BFF",
"4	c #2D0F6A",
"5	c #6B22FF",
"6	c #AD2BFF",
"7	c #FF2FFF",
"8	c #7122FF",
"9	c #922DFF",
"0	c #9A28FF",
"a	c #2C0F6A",
"       .+@      ",
"      #$%&*     ",
"     =-   ;>    ",
"   ,,')   !~    ",
" ,,,,,,  {%     ",
"],,,,,,,^/      ",
",(],,,,_:<,     ",
",,,(],,[},,,,   ",
"|11,,(],,,,,,,, ",
" 11,11,234,,,,,,",
" 11|115678],,,,,",
" 1| 11|90a,(],,,",
" 1| 1| 11,11,],1",
"    1| 11|11,,(1",
"       1| 11|   ",
"       1| 1|    "};
