/* XPM */
static char * ChipRead_xpm[] = {
"16 16 7 1",
" 	c None",
".	c #14DC00",
"+	c #000000",
"@	c #6C6C6C",
"#	c #FFFFFF",
"$	c #D6D7D7",
"%	c #988D6D",
"            .   ",
"            ..  ",
"        ....... ",
"   ++   ........",
" ++++++ ....... ",
"@+++++++... ..  ",
"+#@+++++... .   ",
"+++#@+++...++   ",
"$%%++#@+...++++ ",
" %%+%%+#@+++++++",
" %%$%%+++#@+++++",
" %$ %%$%%++#@+++",
" %$ %$ %%+%%+@+%",
"    %$ %%$%%++#%",
"       %$ %%$   ",
"       %$ %$    "};
