/* XPM */
static char * ChipWrite_xpm[] = {
"16 16 7 1",
" 	c None",
".	c #FF0000",
"+	c #000000",
"@	c #6C6C6C",
"#	c #FFFFFF",
"$	c #D6D7D7",
"%	c #988D6D",
"       ...      ",
"       ...      ",
"       ...      ",
"   ++  ...      ",
" ++++.......    ",
"@+++++.....     ",
"+#@++++...+     ",
"+++#@+++.++++   ",
"$%%++#@++++++++ ",
" %%+%%+#@+++++++",
" %%$%%+++#@+++++",
" %$ %%$%%++#@+++",
" %$ %$ %%+%%+@+%",
"    %$ %%$%%++#%",
"       %$ %%$   ",
"       %$ %$    "};
