/* XPM */
static char * Open_xpm[] = {
"16 16 119 2",
"  	c None",
". 	c #C59214",
"+ 	c #D1A434",
"@ 	c #D3A535",
"# 	c #D3A534",
"$ 	c #C89419",
"% 	c #C79015",
"& 	c #FDFDFC",
"* 	c #FFFFFD",
"= 	c #FFFDFD",
"- 	c #FFFDFC",
"; 	c #F9F2DF",
"> 	c #D6AC3F",
", 	c #D4AC3F",
"' 	c #D9B44D",
") 	c #D7B048",
"! 	c #C78B15",
"~ 	c #FDFAF2",
"{ 	c #F4D664",
"] 	c #EFCD67",
"^ 	c #EFD077",
"/ 	c #F1D187",
"( 	c #FDF9E6",
"_ 	c #FDFCEE",
": 	c #FDFAEC",
"< 	c #FDFAE9",
"[ 	c #FDF9E5",
"} 	c #FFFCF7",
"| 	c #C78515",
"1 	c #FCF7E9",
"2 	c #EFCD6B",
"3 	c #EECA69",
"4 	c #EBC056",
"5 	c #E3B03E",
"6 	c #DFB240",
"7 	c #E6BD5A",
"8 	c #E6BB54",
"9 	c #E6B94E",
"0 	c #E5B74A",
"a 	c #E5B746",
"b 	c #F9F2DD",
"c 	c #C78A14",
"d 	c #C78615",
"e 	c #F9F1DC",
"f 	c #E6BE6B",
"g 	c #E5B65D",
"h 	c #DDA347",
"i 	c #F1DDAF",
"j 	c #FDFAEB",
"k 	c #FDFAE8",
"l 	c #C78016",
"m 	c #FFFCF4",
"n 	c #FFFCF1",
"o 	c #FFFAEF",
"p 	c #FAF1C4",
"q 	c #F4D96B",
"r 	c #F2D45A",
"s 	c #F1CE4A",
"t 	c #EFC83D",
"u 	c #EEC432",
"v 	c #FAEEC3",
"w 	c #C77D15",
"x 	c #C77A15",
"y 	c #FDFAF1",
"z 	c #FAEBAE",
"A 	c #F9E698",
"B 	c #F7E287",
"C 	c #F6DC74",
"D 	c #F2D460",
"E 	c #F1D050",
"F 	c #F1CA40",
"G 	c #EFC533",
"H 	c #EEC127",
"I 	c #ECBD1F",
"J 	c #FAECB9",
"K 	c #C77715",
"L 	c #C77115",
"M 	c #FCF7EB",
"N 	c #F7E390",
"O 	c #F6DD7D",
"P 	c #F4D96C",
"Q 	c #F2D35A",
"R 	c #F1CD4A",
"S 	c #EFC83A",
"T 	c #EEC32E",
"U 	c #ECBE22",
"V 	c #EBBA18",
"W 	c #E9B611",
"X 	c #F9EBB3",
"Y 	c #C76F15",
"Z 	c #C76B15",
"` 	c #FDF7E6",
" .	c #F6DD7A",
"..	c #F4D767",
"+.	c #F2D156",
"@.	c #F1CD46",
"#.	c #EFC738",
"$.	c #EEC32B",
"%.	c #ECBD21",
"&.	c #EBB917",
"*.	c #E9B410",
"=.	c #E8B20C",
"-.	c #F9EBB0",
";.	c #C56413",
">.	c #F7E8CA",
",.	c #EECB81",
"'.	c #EEC876",
").	c #ECC76D",
"!.	c #ECC464",
"~.	c #ECC35B",
"{.	c #EBBE53",
"].	c #EBBD4D",
"^.	c #E9BB46",
"/.	c #E9B940",
"(.	c #E9B73E",
"_.	c #F4DFA4",
":.	c #C45D10",
"<.	c #C45C10",
"[.	c #C45B0F",
"                                ",
"                                ",
"                                ",
"  . + @ @ @ # $                 ",
"  % & * = - * ; > , , , ' )     ",
"  ! ~ { ] ^ / ( _ : < ( [ } !   ",
"  | 1 2 3 4 5 6 7 8 9 0 a b c   ",
"  d e f g h i j : j k ( [ * d   ",
"  l * m n o : p q r s t u v w   ",
"  x y z A B C D E F G H I J K   ",
"  L M N O P Q R S T U V W X Y   ",
"  Z `  ...+.@.#.$.%.&.*.=.-.Z   ",
"  ;.>.,.'.).!.~.{.].^./.(._.;.  ",
"    :.<.:.:.:.:.:.:.:.:.<.:.[.  ",
"                                ",
"                                "};
