/* XPM */
static char * LedOff_xpm[] = {
"16 16 5 1",
" 	c None",
".	c #7F7F7E",
"+	c #474747",
"@	c #000000",
"#	c #7E7E7E",
"    .+@@@+.     ",
"   +@@@@@@@+    ",
"  +@@@####@@+   ",
" +@@#######@@+  ",
".@@#########@@. ",
"+@###########@+ ",
"@@###########@@ ",
"@@###########@@ ",
"@@###########@@ ",
"+@###########@+ ",
".@@#########@@. ",
" +@@#######@@+  ",
"  +@@#####@@+   ",
"   +@@@@@@@+    ",
"    .+@@@+.     ",
"                "};
