/* XPM */
static char * Save_xpm[] = {
"16 16 153 2",
"  	c None",
". 	c #356ABB",
"+ 	c #356ABA",
"@ 	c #3569BA",
"# 	c #386BBB",
"$ 	c #3A6DBC",
"% 	c #396CBA",
"& 	c #376ABA",
"* 	c #3D6FBA",
"= 	c #D1E0F6",
"- 	c #D1E0F7",
"; 	c #F8FBFE",
"> 	c #F7FBFE",
", 	c #F6F9FD",
"' 	c #F0F5FC",
") 	c #EAF0FA",
"! 	c #EDF2FB",
"~ 	c #F7FAFD",
"{ 	c #EBF1FB",
"] 	c #DFE9F8",
"^ 	c #BCD0EC",
"/ 	c #5D88C9",
"( 	c #D1DFF6",
"_ 	c #7FA9E9",
": 	c #F6FAFE",
"< 	c #F6FAFD",
"[ 	c #638BC8",
"} 	c #EEF3FB",
"| 	c #EAF1FB",
"1 	c #F2F6FC",
"2 	c #F1F6FC",
"3 	c #E2ECF9",
"4 	c #DBE7F8",
"5 	c #B9D0EE",
"6 	c #D0DFF6",
"7 	c #7DA7E8",
"8 	c #E9F1FA",
"9 	c #EEF4FB",
"0 	c #E8F0FA",
"a 	c #DDE8F8",
"b 	c #DBE6F7",
"c 	c #79A2E1",
"d 	c #C2D5EF",
"e 	c #3468B6",
"f 	c #CCDDF5",
"g 	c #7DA7E7",
"h 	c #658CC9",
"i 	c #E9F0FA",
"j 	c #F3F8FD",
"k 	c #F8FAFE",
"l 	c #EFF4FC",
"m 	c #DFE9F9",
"n 	c #DBE7F7",
"o 	c #D9E5F7",
"p 	c #77A1E0",
"q 	c #A8C1E7",
"r 	c #3467B5",
"s 	c #C9DCF4",
"t 	c #7CA6E7",
"u 	c #E1ECF9",
"v 	c #E3EDF9",
"w 	c #EEF4FC",
"x 	c #F3F7FD",
"y 	c #E5EDFA",
"z 	c #D8E5F6",
"A 	c #769FDE",
"B 	c #A3BDE4",
"C 	c #3366B3",
"D 	c #C7D9F4",
"E 	c #7CA5E6",
"F 	c #648CC9",
"G 	c #668DC9",
"H 	c #6B91CB",
"I 	c #6C91CB",
"J 	c #688FCA",
"K 	c #648BC8",
"L 	c #739BDA",
"M 	c #9EB9E1",
"N 	c #3365B2",
"O 	c #C4D8F2",
"P 	c #7AA3E3",
"Q 	c #79A2E3",
"R 	c #79A3E3",
"S 	c #7AA3E2",
"T 	c #7AA2E2",
"U 	c #7AA2E1",
"V 	c #78A1E1",
"W 	c #769FDF",
"X 	c #759EDE",
"Y 	c #739DDD",
"Z 	c #719BDB",
"` 	c #739CDC",
" .	c #99B4DD",
"..	c #3364B0",
"+.	c #C1D5F2",
"@.	c #77A0E0",
"#.	c #749DDE",
"$.	c #729ADA",
"%.	c #729AD9",
"&.	c #94AFDA",
"*.	c #3263AE",
"=.	c #BDD2F0",
"-.	c #79A2E2",
";.	c #769EDE",
">.	c #759EDD",
",.	c #719AD9",
"'.	c #7098D8",
").	c #6F98D6",
"!.	c #8DAAD5",
"~.	c #3262AC",
"{.	c #3569B9",
"].	c #BAD0EF",
"^.	c #79A1E2",
"/.	c #6C95D3",
"(.	c #89A6D2",
"_.	c #3161AA",
":.	c #B7CEEF",
"<.	c #F7FAFE",
"[.	c #87BF61",
"}.	c #6992CF",
"|.	c #83A2CE",
"1.	c #3160A9",
"2.	c #376BBA",
"3.	c #B5CCEE",
"4.	c #79A1E1",
"5.	c #C1DCBE",
"6.	c #678FCD",
"7.	c #809DCC",
"8.	c #3160A7",
"9.	c #366AB9",
"0.	c #B2CAED",
"a.	c #79A1E0",
"b.	c #648CCA",
"c.	c #7B9AC9",
"d.	c #305FA6",
"e.	c #3469B9",
"f.	c #ACC5EB",
"g.	c #ACC4EA",
"h.	c #7B99C8",
"i.	c #7897C7",
"j.	c #3468B8",
"k.	c #3468B7",
"l.	c #3467B6",
"m.	c #3467B4",
"n.	c #3365B1",
"o.	c #3264AF",
"p.	c #3263AD",
"q.	c #3162AB",
"r.	c #3161A9",
"s.	c #3160A8",
"t.	c #305FA7",
"u.	c #305FA5",
"v.	c #3060A7",
"  . . . . + + @ @ # $ % & *     ",
". = - ; > , ' ) ! , ~ { ] ^ /   ",
". ( _ : < [ } | 1 ; 2 3 4 5 ^ * ",
". 6 7 2 2 [ 8 9 ~ , 0 a b c d e ",
". f g 0 0 h i j k l m n o p q r ",
"+ s t u u v w ~ x y n o z A B C ",
"+ D E [ F G H I J K [ [ [ L M N ",
"@ O P Q R S T U V W X Y Z `  ...",
"@ +.Q Q T T S V @.A #.` $.%.&.*.",
"@ =.-.-.c T U @.;.>.` ,.'.).!.~.",
"{.].^.; ; ; ; ; ; ; ; ; ; /.(._.",
"& :.V <.[.[.[.[.[.[.[.[., }.|.1.",
"2.3.4.<.5.5.5.5.5.5.5.5., 6.7.8.",
"9.0.a.<.[.[.[.[.[.[.[.[., b.c.d.",
"e.f.g.; ; ; ; ; ; ; ; ; ; h.i.d.",
"{.j.k.l.m.C n.o.p.q.r.s.t.d.u.v."};
