/* XPM */
static char * WxPic_xpm[] = {
"16 16 5 1",
" 	c None",
".	c #000000",
"+	c #6D6D6D",
"@	c #FFFFFF",
"#	c #998E6E",
"                ",
"   ..           ",
" ......         ",
"+........       ",
".@+........     ",
"...@+........   ",
" ##..@+........ ",
" ##.##.@+.......",
" ## ##...@+.....",
" #  ## ##..@+...",
" #  #  ##.##.+.#",
"    #  ## ##.. #",
"       #  ##    ",
"       #  #     ",
"          #     ",
"                "};
